<?xml version="1.0" encoding="UTF-8" standalone="no"?><!DOCTYPE svg PUBLIC "-//W3C//DTD SVG 1.1//EN" "http://www.w3.org/Graphics/SVG/1.1/DTD/svg11.dtd"><svg width="100%" height="100%" viewBox="0 0 154 168" version="1.1" xmlns="http://www.w3.org/2000/svg" xmlns:xlink="http://www.w3.org/1999/xlink" xml:space="preserve" xmlns:serif="http://www.serif.com/" style="fill-rule:evenodd;clip-rule:evenodd;stroke-linecap:round;stroke-linejoin:round;stroke-miterlimit:1.5;"><g><path d="M14.38,71.237c2.343,-39.823 16.323,-70.237 63.62,-70.237c47.304,0 59.665,30.424 61.678,70.257c9.485,3.205 13.322,12.182 13.322,22.743c0,12.732 -6.936,23.162 -19.47,23.952c-11.793,29.263 -37.253,49.048 -55.53,49.048c-18.273,0 -44.836,-19.776 -57.198,-49.03c-12.691,-0.625 -19.802,-11.126 -19.802,-23.97c0,-10.583 3.864,-19.575 13.38,-22.763Z" style="fill:none;stroke:#000;stroke-width:2px;"/><path d="M65.802,70.491c-0.484,-0.464 -0.679,-0.964 -0.802,-1.491c-0.601,-2.582 0.15,-13.806 13,-14c12.85,-0.194 13.897,12.308 12,18c-2,6 -12.05,13.718 -12,18c0.039,3.355 0,11 0,11" style="fill:none;stroke:#000;stroke-width:2px;"/><circle cx="78.191" cy="113.233" r="3.06" style="fill:none;stroke:#000;stroke-width:2px;"/></g></svg>