<?xml version="1.0" encoding="UTF-8" standalone="no"?><!DOCTYPE svg PUBLIC "-//W3C//DTD SVG 1.1//EN" "http://www.w3.org/Graphics/SVG/1.1/DTD/svg11.dtd"><svg width="100%" height="100%" viewBox="0 0 181 158" version="1.1" xmlns="http://www.w3.org/2000/svg" xmlns:xlink="http://www.w3.org/1999/xlink" xml:space="preserve" xmlns:serif="http://www.serif.com/" style="fill-rule:evenodd;clip-rule:evenodd;stroke-linejoin:round;stroke-miterlimit:2;"><g id="Logout-White" serif:id="Logout White"><path d="M73.464,5.027l0.458,0.081l0.446,0.133l0.427,0.184l0.403,0.233l0.373,0.278l0.339,0.319l0.299,0.356l0.255,0.389l0.209,0.416l0.159,0.437l0.107,0.452l0.054,0.462l0,0.466l-0.054,0.462l-0.107,0.452l-0.159,0.437l-0.209,0.416l-0.255,0.389l-0.299,0.356l-0.339,0.319l-0.373,0.278l-0.403,0.233l-0.427,0.184l-0.446,0.133l-0.458,0.081l-0.464,0.027l-60,0l0,132l60,0l0.464,0.027l0.458,0.081l0.446,0.133l0.427,0.184l0.403,0.233l0.373,0.278l0.339,0.319l0.299,0.356l0.255,0.389l0.209,0.416l0.159,0.437l0.107,0.452l0.054,0.462l0,0.466l-0.054,0.462l-0.107,0.452l-0.159,0.437l-0.209,0.416l-0.255,0.389l-0.299,0.356l-0.339,0.319l-0.373,0.278l-0.403,0.233l-0.427,0.184l-0.446,0.133l-0.458,0.081l-0.464,0.027l-68,0l0,-148l68,0l0.464,0.027Z" style="fill:#fff;"/><g><path d="M79.537,35.036l0.353,0.064l0.346,0.096l0.336,0.126l0.323,0.156l0.309,0.184l0.29,0.211l0.27,0.236l0.248,0.259l0.224,0.281l0.198,0.299l0.17,0.316l0.141,0.331l0.111,0.341l0.08,0.35l0.048,0.355l0.016,0.359l0,85l-0.016,0.359l-0.048,0.355l-0.08,0.35l-0.111,0.341l-0.141,0.331l-0.17,0.316l-0.198,0.299l-0.224,0.281l-0.248,0.259l-0.27,0.236l-0.29,0.211l-0.309,0.184l-0.323,0.156l-0.336,0.126l-0.346,0.096l-0.353,0.064l-0.358,0.032l-0.358,0l-0.358,-0.032l-0.353,-0.064l-0.346,-0.096l-0.336,-0.126l-0.323,-0.156l-0.309,-0.184l-0.29,-0.211l-0.27,-0.236l-0.248,-0.259l-0.224,-0.281l-0.198,-0.299l-0.17,-0.316l-0.141,-0.331l-0.111,-0.341l-0.08,-0.35l-0.048,-0.355l-0.016,-0.359l0,-85l0.016,-0.359l0.048,-0.355l0.08,-0.35l0.111,-0.341l0.141,-0.331l0.17,-0.316l0.198,-0.299l0.224,-0.281l0.248,-0.259l0.27,-0.236l0.29,-0.211l0.309,-0.184l0.323,-0.156l0.336,-0.126l0.346,-0.096l0.353,-0.064l0.358,-0.032l0.358,0l0.358,0.032Z" style="fill:#fff;"/><path d="M130.01,75.064l0.279,0.011l0.278,0.03l0.274,0.049l0.271,0.068l0.266,0.087l0.258,0.105l0.251,0.123l0.241,0.141l0.231,0.156l0.22,0.173l0.207,0.187l0.193,0.201l0.179,0.215l0.164,0.226l0.147,0.237l0.131,0.247l0.112,0.255l0.095,0.263l0.077,0.268l0.057,0.274l0.038,0.276l0.019,0.279l-0.001,0.279l-0.02,0.279l-0.04,0.276l-0.058,0.273l-0.078,0.268l-0.096,0.262l-0.114,0.255l-0.132,0.246l-0.149,0.236l-0.164,0.226l-0.18,0.213l-0.195,0.201l-0.208,0.186l-0.22,0.171l-0.232,0.156l-0.242,0.139l-0.251,0.122l-0.259,0.104l-0.266,0.085l-0.271,0.067l-0.275,0.048l-0.278,0.028l-0.279,0.009l-51,-0.128l-0.279,-0.011l-0.278,-0.03l-0.275,-0.049l-0.27,-0.068l-0.266,-0.087l-0.258,-0.105l-0.251,-0.123l-0.241,-0.141l-0.231,-0.156l-0.22,-0.173l-0.207,-0.187l-0.193,-0.201l-0.179,-0.215l-0.164,-0.226l-0.147,-0.237l-0.131,-0.247l-0.113,-0.255l-0.094,-0.263l-0.077,-0.268l-0.057,-0.274l-0.038,-0.276l-0.019,-0.279l0.001,-0.279l0.02,-0.279l0.039,-0.276l0.059,-0.273l0.078,-0.268l0.096,-0.262l0.114,-0.255l0.132,-0.246l0.148,-0.236l0.165,-0.226l0.18,-0.213l0.195,-0.201l0.208,-0.186l0.22,-0.171l0.232,-0.156l0.242,-0.139l0.251,-0.122l0.259,-0.104l0.266,-0.085l0.271,-0.067l0.275,-0.048l0.278,-0.028l0.279,-0.009l51,0.128Z" style="fill:#fff;"/><path d="M136.527,34.035l0.353,0.063l0.347,0.095l0.336,0.125l0.324,0.155l0.308,0.183l0.291,0.211l0.271,0.235l0.249,0.259l38.317,43.639l-38.317,43.639l-0.249,0.259l-0.271,0.235l-0.291,0.211l-0.308,0.183l-0.324,0.155l-0.336,0.125l-0.347,0.095l-0.353,0.063l-0.357,0.031l-0.359,0l-0.358,-0.034l-0.353,-0.065l-0.345,-0.096l-0.336,-0.127l-0.323,-0.156l-0.308,-0.185l-0.29,-0.212l-0.269,-0.237l-0.248,-0.26l-0.223,-0.281l-0.197,-0.3l-0.169,-0.316l-0.14,-0.331l-0.11,-0.341l-0.079,-0.351l-0.048,-0.355l-0.015,-0.359l0.017,-0.358l0.049,-0.356l0.081,-0.35l0.112,-0.341l0.141,-0.329l0.171,-0.316l0.199,-0.299l0.224,-0.28l33.683,-38.361l-33.683,-38.361l-0.224,-0.28l-0.199,-0.299l-0.171,-0.316l-0.141,-0.329l-0.112,-0.341l-0.081,-0.35l-0.049,-0.356l-0.017,-0.358l0.015,-0.359l0.048,-0.355l0.079,-0.351l0.11,-0.341l0.14,-0.331l0.169,-0.316l0.197,-0.3l0.223,-0.281l0.248,-0.26l0.269,-0.237l0.29,-0.212l0.308,-0.185l0.323,-0.156l0.336,-0.127l0.345,-0.097l0.353,-0.064l0.358,-0.034l0.359,0l0.357,0.031Z" style="fill:#fff;"/></g></g></svg>