<?xml version="1.0" encoding="UTF-8" standalone="no"?><!DOCTYPE svg PUBLIC "-//W3C//DTD SVG 1.1//EN" "http://www.w3.org/Graphics/SVG/1.1/DTD/svg11.dtd"><svg width="100%" height="100%" viewBox="0 0 30 30" version="1.1" xmlns="http://www.w3.org/2000/svg" xmlns:xlink="http://www.w3.org/1999/xlink" xml:space="preserve" xmlns:serif="http://www.serif.com/" style="fill-rule:evenodd;clip-rule:evenodd;stroke-linejoin:round;stroke-miterlimit:1.41421;"><path d="M13.765,21.565c0,-0.798 0.053,-1.497 0.16,-2.096c0.107,-0.599 0.274,-1.155 0.501,-1.666c0.228,-0.512 0.533,-1.005 0.917,-1.479c0.384,-0.475 0.853,-0.993 1.408,-1.554c0.469,-0.487 0.899,-0.949 1.29,-1.385c0.391,-0.437 0.728,-0.89 1.013,-1.358c0.284,-0.468 0.508,-0.979 0.671,-1.535c0.164,-0.555 0.246,-1.207 0.246,-1.956c0,-0.736 -0.093,-1.41 -0.278,-2.022c-0.184,-0.611 -0.462,-1.135 -0.831,-1.572c-0.37,-0.437 -0.825,-0.777 -1.365,-1.021c-0.54,-0.243 -1.173,-0.365 -1.898,-0.365c-0.668,0 -1.283,0.107 -1.845,0.319c-0.561,0.212 -1.052,0.521 -1.471,0.926c-0.419,0.406 -0.75,0.899 -0.992,1.479c-0.241,0.581 -0.369,1.245 -0.383,1.994l-2.346,0c0.014,-1.061 0.206,-2.012 0.576,-2.855c0.369,-0.842 0.87,-1.551 1.503,-2.125c0.633,-0.574 1.372,-1.014 2.218,-1.319c0.846,-0.306 1.759,-0.459 2.74,-0.459c1.081,0 2.04,0.168 2.879,0.505c0.839,0.337 1.542,0.815 2.111,1.432c0.569,0.618 1.002,1.358 1.301,2.219c0.298,0.861 0.448,1.809 0.448,2.845c0,0.824 -0.107,1.588 -0.32,2.294c-0.213,0.705 -0.512,1.372 -0.896,2.003c-0.384,0.63 -0.835,1.238 -1.354,1.825c-0.519,0.586 -1.084,1.179 -1.695,1.778c-0.754,0.687 -1.269,1.467 -1.546,2.34c-0.278,0.874 -0.416,1.81 -0.416,2.808l-2.346,0Z" style="fill:#ff9996;fill-rule:nonzero;"/><circle cx="15.114" cy="27.895" r="1.536" style="fill:#ff9996;"/></svg>