<?xml version="1.0" encoding="UTF-8" standalone="no"?><!DOCTYPE svg PUBLIC "-//W3C//DTD SVG 1.1//EN" "http://www.w3.org/Graphics/SVG/1.1/DTD/svg11.dtd"><svg width="100%" height="100%" viewBox="0 0 115 126" version="1.1" xmlns="http://www.w3.org/2000/svg" xmlns:xlink="http://www.w3.org/1999/xlink" xml:space="preserve" xmlns:serif="http://www.serif.com/" style="fill-rule:evenodd;clip-rule:evenodd;stroke-linejoin:round;stroke-miterlimit:2;"><g id="Filter"><path d="M106.392,5.019l0.388,0.058l0.381,0.095l0.37,0.132l0.355,0.168l0.336,0.202l0.316,0.234l0.29,0.264l0.264,0.29l0.234,0.316l0.202,0.336l0.168,0.355l0.132,0.37l0.095,0.381l0.058,0.388l0.019,0.392l-0.019,0.392l-0.058,0.388l-0.095,0.381l-0.132,0.37l-0.168,0.355l-0.202,0.336l-0.234,0.316l-0.264,0.29l-0.29,0.264l-0.316,0.234l-0.336,0.202l-0.355,0.168l-0.37,0.132l-0.381,0.095l-0.388,0.058l-0.392,0.019l-97,0l-0.392,-0.019l-0.388,-0.058l-0.381,-0.095l-0.37,-0.132l-0.355,-0.168l-0.336,-0.202l-0.316,-0.234l-0.29,-0.264l-0.264,-0.29l-0.234,-0.316l-0.202,-0.336l-0.167,-0.355l-0.133,-0.37l-0.095,-0.381l-0.058,-0.388l-0.019,-0.392l0.019,-0.392l0.058,-0.388l0.095,-0.381l0.133,-0.37l0.167,-0.355l0.202,-0.336l0.234,-0.316l0.264,-0.29l0.29,-0.264l0.316,-0.234l0.336,-0.202l0.355,-0.168l0.37,-0.132l0.381,-0.095l0.388,-0.058l0.392,-0.019l97,0l0.392,0.019Z"/><path d="M82.279,29.01l0.278,0.029l0.275,0.048l0.271,0.068l0.265,0.086l0.259,0.105l0.251,0.122l0.242,0.14l0.231,0.156l0.22,0.172l0.208,0.187l0.194,0.2l0.179,0.214l0.164,0.226l0.148,0.237l0.131,0.247l0.114,0.255l0.095,0.262l0.077,0.268l0.058,0.273l0.039,0.277l0.02,0.278l0,0.28l-0.02,0.278l-0.039,0.277l-0.058,0.273l-0.077,0.268l-0.095,0.262l-0.114,0.255l-0.131,0.247l-0.148,0.237l-0.164,0.226l-0.179,0.214l-0.194,0.2l-0.208,0.187l-0.22,0.172l-0.231,0.156l-0.242,0.14l-0.251,0.122l-0.259,0.105l-0.265,0.086l-0.271,0.068l-0.275,0.048l-0.278,0.029l-0.279,0.01l-49,0l-0.279,-0.01l-0.278,-0.029l-0.275,-0.048l-0.271,-0.068l-0.265,-0.086l-0.259,-0.105l-0.251,-0.122l-0.242,-0.14l-0.231,-0.156l-0.22,-0.172l-0.208,-0.187l-0.194,-0.2l-0.179,-0.214l-0.164,-0.226l-0.148,-0.237l-0.131,-0.247l-0.114,-0.255l-0.095,-0.262l-0.077,-0.268l-0.058,-0.273l-0.039,-0.277l-0.02,-0.278l0,-0.28l0.02,-0.278l0.039,-0.277l0.058,-0.273l0.077,-0.268l0.095,-0.262l0.114,-0.255l0.131,-0.247l0.148,-0.237l0.164,-0.226l0.179,-0.214l0.194,-0.2l0.208,-0.187l0.22,-0.172l0.231,-0.156l0.242,-0.14l0.251,-0.122l0.259,-0.105l0.265,-0.086l0.271,-0.068l0.275,-0.048l0.278,-0.029l0.279,-0.01l49,0l0.279,0.01Z"/><path d="M10.416,28.022l0.319,0.046l0.314,0.072l0.307,0.097l0.299,0.121l0.287,0.145l0.275,0.168l0.261,0.189l0.245,0.21l0.227,0.228l0.207,0.246l35.843,46.084l0,23.372l-0.013,0.322l-0.039,0.32l-0.064,0.315l-0.09,0.31l-0.114,0.301l-0.138,0.291l-0.161,0.279l-0.183,0.265l-0.204,0.249l-0.223,0.233l-0.241,0.213l-0.258,0.194l-0.272,0.172l-0.285,0.15l-0.297,0.126l-0.305,0.102l-0.313,0.077l-0.318,0.052l-0.321,0.026l-0.322,0l-0.321,-0.026l-0.318,-0.052l-0.313,-0.077l-0.305,-0.102l-0.297,-0.126l-0.285,-0.15l-0.272,-0.172l-0.258,-0.194l-0.241,-0.213l-0.223,-0.233l-0.204,-0.249l-0.183,-0.265l-0.161,-0.279l-0.138,-0.291l-0.114,-0.301l-0.09,-0.31l-0.064,-0.315l-0.039,-0.32l-0.013,-0.322l0,-20.628l-34.157,-43.916l-0.188,-0.262l-0.165,-0.277l-0.143,-0.288l-0.12,-0.299l-0.094,-0.308l-0.07,-0.315l-0.044,-0.319l-0.018,-0.322l0.007,-0.322l0.034,-0.32l0.059,-0.317l0.084,-0.31l0.11,-0.304l0.133,-0.293l0.156,-0.281l0.179,-0.269l0.199,-0.252l0.22,-0.236l0.237,-0.218l0.254,-0.198l0.27,-0.176l0.282,-0.155l0.295,-0.131l0.303,-0.107l0.312,-0.082l0.317,-0.057l0.321,-0.032l0.322,-0.005l0.321,0.021Z"/><path d="M105.31,28.012l0.356,0.044l0.351,0.075l0.343,0.107l0.332,0.137l0.318,0.167l0.302,0.194l0.283,0.22l0.262,0.245l0.24,0.267l0.214,0.288l0.188,0.306l0.16,0.321l0.13,0.335l0.1,0.345l0.068,0.352l0.036,0.357l0.005,0.359l-0.028,0.358l-0.06,0.354l-0.091,0.347l-0.122,0.337l-0.152,0.326l-0.18,0.31l-0.208,0.293l-34.157,43.916l0,38.628l-0.016,0.359l-0.048,0.355l-0.08,0.35l-0.111,0.341l-0.141,0.331l-0.17,0.316l-0.198,0.299l-0.224,0.281l-0.248,0.259l-0.27,0.236l-0.29,0.211l-0.309,0.184l-0.323,0.156l-0.336,0.126l-0.346,0.096l-0.353,0.064l-0.358,0.032l-0.358,0l-0.358,-0.032l-0.353,-0.064l-0.346,-0.096l-0.336,-0.126l-0.323,-0.156l-0.309,-0.184l-0.29,-0.211l-0.27,-0.236l-0.248,-0.259l-0.224,-0.281l-0.198,-0.299l-0.17,-0.316l-0.141,-0.331l-0.111,-0.341l-0.08,-0.35l-0.048,-0.355l-0.016,-0.359l0,-41.372l35.843,-46.084l0.232,-0.273l0.257,-0.251l0.278,-0.227l0.297,-0.202l0.314,-0.174l0.328,-0.145l0.34,-0.115l0.349,-0.084l0.355,-0.052l0.358,-0.021l0.359,0.012Z"/></g></svg>