<svg xmlns="http://www.w3.org/2000/svg" data-name="Layer 1" viewBox="0 0 128 160" x="0px" y="0px"><title>Miscellaneous 29</title><path d="M33,17.76l-8-4.5a2,2,0,0,0-2,0l-8,4.5a2,2,0,0,0-1,1.74v9a2,2,0,0,0,1,1.74l8,4.5a2,2,0,0,0,2,0l8-4.5a2,2,0,0,0,1-1.74v-9A2,2,0,0,0,33,17.76Z"/><path d="M24,0A23.84,23.84,0,0,0,13.09,45.12v75.29c0,4.79,2.82,7.59,7.64,7.59h6.54c4.82,0,7.64-2.8,7.64-7.59V45.12A23.84,23.84,0,0,0,24,0Zm0,118a2,2,0,1,1,2-2A2,2,0,0,1,24,118Zm9.09-76.45-2.18,1.11V104H17.09V42.67l-2.18-1.12A19.84,19.84,0,0,1,24,4a19.84,19.84,0,0,1,9.09,37.55Z"/><rect x="56" y="15" width="10" height="10"/><path d="M56,47H66V43.33l-2.85,2.24a2,2,0,0,1-1.23.43,2,2,0,0,1-1.41-.58l-1.92-1.9a2,2,0,0,1,2.82-2.84l.66.66,3.69-2.91.24-.15V37H56Z"/><rect x="56" y="59" width="10" height="10"/><path d="M120,0H42L38.54.06A27.84,27.84,0,0,1,52,23.86V13a2,2,0,0,1,2-2H68a2,2,0,0,1,2,2V27a2,2,0,0,1-2,2H54a2,2,0,0,1-2-2V23.86A27.72,27.72,0,0,1,38.91,47.45v73A11.93,11.93,0,0,1,36.49,128H99.61a4.64,4.64,0,0,1-4.78-4.47v-2a21.4,21.4,0,0,1-4-1.66l-1.41,1.41a4.3,4.3,0,0,1-3.07,1.25,5,5,0,0,1-3.47-1.46l-2-2a4.63,4.63,0,0,1-.23-6.54l1.42-1.41a21.69,21.69,0,0,1-1.66-4h-2A4.64,4.64,0,0,1,74,102.39V99.61a4.64,4.64,0,0,1,4.47-4.78h2a21.69,21.69,0,0,1,1.66-4l-1.41-1.41a4.31,4.31,0,0,1-1.25-3.08,5,5,0,0,1,1.47-3.46l2-2a5,5,0,0,1,3.47-1.47,4.3,4.3,0,0,1,3.07,1.25l1.41,1.41a21.41,21.41,0,0,1,4-1.66v-2A4.64,4.64,0,0,1,99.61,74h2.78a4.64,4.64,0,0,1,4.78,4.47v2a21.41,21.41,0,0,1,4,1.66l1.41-1.41a4.3,4.3,0,0,1,3.07-1.25,5,5,0,0,1,3.47,1.46l2,2a4.63,4.63,0,0,1,.21,6.54l-1.41,1.41a21.69,21.69,0,0,1,1.66,4h2A4.64,4.64,0,0,1,128,99.61V8A8,8,0,0,0,120,0ZM68,112H50a2,2,0,0,1,0-4H68a2,2,0,0,1,0,4Zm0-8H60a2,2,0,0,1,0-4h8a2,2,0,0,1,0,4Zm0-8H50a2,2,0,0,1,0-4H68a2,2,0,0,1,0,4Zm2-25a2,2,0,0,1-2,2H54a2,2,0,0,1-2-2V57a2,2,0,0,1,2-2H68a2,2,0,0,1,2,2Zm0-22a2,2,0,0,1-2,2H54a2,2,0,0,1-2-2V35a2,2,0,0,1,2-2H68a2,2,0,0,1,2,2Zm48,21H76a2,2,0,0,1,0-4h42a2,2,0,0,1,0,4Zm0-8H76a2,2,0,0,1,0-4h42a2,2,0,0,1,0,4Zm0-14H76a2,2,0,0,1,0-4h42a2,2,0,0,1,0,4Zm0-8H76a2,2,0,0,1,0-4h42a2,2,0,0,1,0,4Zm0-14H76a2,2,0,0,1,0-4h42a2,2,0,0,1,0,4Zm0-8H76a2,2,0,0,1,0-4h42a2,2,0,0,1,0,4Z"/><path d="M109,101a8,8,0,1,0-8,8A8,8,0,0,0,109,101Z"/><path d="M123.53,107.17h-2a21.69,21.69,0,0,1-1.66,4l1.41,1.41a4.64,4.64,0,0,1-.21,6.54l-2,2a4.93,4.93,0,0,1-3.47,1.47,4.29,4.29,0,0,1-3.06-1.24l-1.42-1.42a21.4,21.4,0,0,1-4,1.66v2a4.64,4.64,0,0,1-4.78,4.47H120a8,8,0,0,0,7.73-6l.27.15V102.39A4.64,4.64,0,0,1,123.53,107.17Z"/><path d="M99.61,124h2.78c.47,0,.78-.28.78-.47v-5.15l1.57-.34a17.25,17.25,0,0,0,5.66-2.35l1.36-.87,3.64,3.65a.36.36,0,0,0,.24.07,1,1,0,0,0,.65-.3l2-2c.33-.33.35-.74.21-.88l-3.64-3.64.87-1.36a17.34,17.34,0,0,0,2.35-5.66l.34-1.57h5.15c.19,0,.47-.31.47-.78V99.61c0-.47-.28-.78-.47-.78h-5.15L118,97.26a17.25,17.25,0,0,0-2.35-5.66l-.87-1.36,3.64-3.64c.14-.13.12-.55-.21-.88l-2-2c-.27-.27-.72-.37-.88-.22l-3.64,3.65-1.36-.87A17.25,17.25,0,0,0,104.74,84l-1.57-.34V78.47c0-.19-.31-.47-.78-.47l-3.56.47v5.15L97.26,84a17.25,17.25,0,0,0-5.66,2.35l-1.36.87L86.6,83.54c-.15-.16-.6-.07-.89.22l-2,2a.93.93,0,0,0-.3.64.32.32,0,0,0,.08.24l3.64,3.64-.87,1.36A17.34,17.34,0,0,0,84,97.26l-.34,1.57H78.47c-.19,0-.47.31-.47.78v2.78c0,.47.28.78.47.78h5.15l.34,1.57a17.43,17.43,0,0,0,2.35,5.66l.87,1.36-3.65,3.64c-.13.13-.11.55.23.88l2,2c.28.27.73.37.89.21l3.63-3.64,1.36.87A17.16,17.16,0,0,0,97.26,118l1.57.34v5.15C98.83,123.72,99.14,124,99.61,124ZM89,101a12,12,0,1,1,12,12A12,12,0,0,1,89,101Z"/><text x="0" y="143" fill="#000000" font-size="5px" font-weight="bold" font-family="'Helvetica Neue', Helvetica, Arial-Unicode, Arial, Sans-serif">Created by priyanka</text><text x="0" y="148" fill="#000000" font-size="5px" font-weight="bold" font-family="'Helvetica Neue', Helvetica, Arial-Unicode, Arial, Sans-serif">from the Noun Project</text></svg>