<svg xmlns="http://www.w3.org/2000/svg" data-name="Layer 1" viewBox="0 0 100 125" x="0px" y="0px"><title>Artboard 4</title><path d="M75.52,35.73a2.5,2.5,0,0,0-2.5-2.5H16.46a2.5,2.5,0,1,0,0,5H73A2.5,2.5,0,0,0,75.52,35.73Z"/><path d="M22.59,83.36a2.5,2.5,0,0,0,1.77.73H47.6a2.5,2.5,0,0,0,0-5H28V67a7.14,7.14,0,0,0-7.14-7.14H8.79V17.94a2.14,2.14,0,0,1,2.14-2.14h8.46v3.66a5.19,5.19,0,0,0,5.18,5.18h6.62a5.19,5.19,0,0,0,5.18-5.18V15.8H53.11v3.66a5.19,5.19,0,0,0,5.18,5.18h6.62a5.19,5.19,0,0,0,5.18-5.18V15.8h8.46a2.14,2.14,0,0,1,2.14,2.14V42.85a2.5,2.5,0,0,0,5,0V17.94a7.15,7.15,0,0,0-7.14-7.14H70.09V6.18A5.19,5.19,0,0,0,64.91,1H58.29a5.19,5.19,0,0,0-5.18,5.18V10.8H36.37V6.18A5.19,5.19,0,0,0,31.19,1H24.57a5.19,5.19,0,0,0-5.18,5.18V10.8H10.92a7.15,7.15,0,0,0-7.14,7.14V63.52a2.5,2.5,0,0,0,.73,1.77ZM58.11,6.18A.18.18,0,0,1,58.29,6h6.62a.18.18,0,0,1,.18.18V19.47a.18.18,0,0,1-.18.18H58.29a.18.18,0,0,1-.18-.18Zm-33.72,0A.18.18,0,0,1,24.57,6h6.62a.18.18,0,0,1,.18.18V19.47a.18.18,0,0,1-.18.18H24.57a.18.18,0,0,1-.18-.18ZM23,67v9.67L11.19,64.88h9.67A2.14,2.14,0,0,1,23,67Z"/><path d="M78.32,48.66a2.5,2.5,0,0,0-5,0V52A15.26,15.26,0,0,0,59.93,66c0,.34,0,.68,0,1v6.33A6.4,6.4,0,0,1,58,77.88l-.62.62a6.76,6.76,0,0,0-1.26,7.78A6.86,6.86,0,0,0,62.3,90H89.5a6.73,6.73,0,0,0,6.72-6.72v-.19a6.72,6.72,0,0,0-1.62-4.37l-1.31-1.52A6.44,6.44,0,0,1,91.74,73V67q0-.52,0-1A15.25,15.25,0,0,0,78.32,52Zm8.4,17.63c0,.23,0,.47,0,.71v6a11.44,11.44,0,0,0,2.75,7.45l1.31,1.52a1.72,1.72,0,0,1,.41,1.12v.19A1.72,1.72,0,0,1,89.5,85H62.3a1.86,1.86,0,0,1-1.68-.91,1.74,1.74,0,0,1,.31-2l.62-.62a11.36,11.36,0,0,0,3.35-8.09V67c0-.24,0-.48,0-.71a10.32,10.32,0,0,1,10.46-9.43h.87A10.32,10.32,0,0,1,86.72,66.28Z"/><path d="M80.57,99a2.5,2.5,0,0,0,0-5H71.07a2.5,2.5,0,0,0,0,5Z"/><text x="0" y="115" fill="#000000" font-size="5px" font-weight="bold" font-family="'Helvetica Neue', Helvetica, Arial-Unicode, Arial, Sans-serif">Created by Gregor Cresnar</text><text x="0" y="120" fill="#000000" font-size="5px" font-weight="bold" font-family="'Helvetica Neue', Helvetica, Arial-Unicode, Arial, Sans-serif">from the Noun Project</text></svg>