<svg xmlns="http://www.w3.org/2000/svg" xmlns:xlink="http://www.w3.org/1999/xlink" version="1.1" x="0px" y="0px" viewBox="0 0 60 75" style="enable-background:new 0 0 60 60;" xml:space="preserve"><g><path d="M59,4h-7V1c0-0.552-0.447-1-1-1h-4c-0.553,0-1,0.448-1,1v3H33V1c0-0.552-0.447-1-1-1h-4c-0.552,0-1,0.448-1,1v3H14V1   c0-0.552-0.448-1-1-1H9C8.448,0,8,0.448,8,1v3H1C0.448,4,0,4.448,0,5v16v38c0,0.553,0.448,1,1,1h58c0.553,0,1-0.447,1-1V21V5   C60,4.448,59.553,4,59,4z M48,2h2v8h-2V2z M29,2h2v8h-2V2z M10,2h2v8h-2V2z M58,58H2V22h56V58z M58,20H2V6h6v5c0,0.552,0.448,1,1,1   h4c0.552,0,1-0.448,1-1V6h13v5c0,0.552,0.448,1,1,1h4c0.553,0,1-0.448,1-1V6h13v5c0,0.552,0.447,1,1,1h4c0.553,0,1-0.448,1-1V6h6   V20z"/><path d="M8,35h8c0.552,0,1-0.447,1-1v-8c0-0.552-0.448-1-1-1H8c-0.552,0-1,0.448-1,1v8C7,34.553,7.448,35,8,35z M9,27h6v6H9V27z"/><path d="M20,35h8c0.552,0,1-0.447,1-1v-8c0-0.552-0.448-1-1-1h-8c-0.552,0-1,0.448-1,1v8C19,34.553,19.448,35,20,35z M21,27h6v6h-6   V27z"/><path d="M32,35h8v-2h-7v-6h3v-2h-4c-0.553,0-1,0.448-1,1v8C31,34.553,31.447,35,32,35z"/><path d="M32,51h8c0.553,0,1-0.447,1-1v-8c0-0.553-0.447-1-1-1h-8c-0.553,0-1,0.447-1,1v8C31,50.553,31.447,51,32,51z M33,43h6v6h-6   V43z"/><path d="M44,51h8c0.553,0,1-0.447,1-1v-8c0-0.553-0.447-1-1-1h-8c-0.553,0-1,0.447-1,1v8C43,50.553,43.447,51,44,51z M45,43h6v6h-6   V43z"/><path d="M34.293,29.707l2,2C36.488,31.902,36.744,32,37,32s0.512-0.098,0.707-0.293l4-4l-1.414-1.414L37,29.586l-1.293-1.293   L34.293,29.707z"/><path d="M44,35h8v-2h-7v-6h3v-2h-4c-0.553,0-1,0.448-1,1v8C43,34.553,43.447,35,44,35z"/><path d="M46.293,29.707l2,2C48.488,31.902,48.744,32,49,32s0.512-0.098,0.707-0.293l4-4l-1.414-1.414L49,29.586l-1.293-1.293   L46.293,29.707z"/><path d="M8,51h8v-2H9v-6h3v-2H8c-0.552,0-1,0.447-1,1v8C7,50.553,7.448,51,8,51z"/><path d="M13,45.586l-1.293-1.293l-1.414,1.414l2,2C12.488,47.902,12.744,48,13,48s0.512-0.098,0.707-0.293l4-4l-1.414-1.414   L13,45.586z"/><path d="M20,51h8v-2h-7v-6h3v-2h-4c-0.552,0-1,0.447-1,1v8C19,50.553,19.448,51,20,51z"/><path d="M25,45.586l-1.293-1.293l-1.414,1.414l2,2C24.488,47.902,24.744,48,25,48s0.512-0.098,0.707-0.293l4-4l-1.414-1.414   L25,45.586z"/></g><text x="0" y="75" fill="#000000" font-size="5px" font-weight="bold" font-family="'Helvetica Neue', Helvetica, Arial-Unicode, Arial, Sans-serif">Created by Unlimiticon</text><text x="0" y="80" fill="#000000" font-size="5px" font-weight="bold" font-family="'Helvetica Neue', Helvetica, Arial-Unicode, Arial, Sans-serif">from the Noun Project</text></svg>